<mxfile host="Electron" modified="2024-05-13T20:42:29.359Z" agent="Mozilla/5.0 (Macintosh; Intel Mac OS X 10_15_7) AppleWebKit/537.36 (KHTML, like Gecko) draw.io/23.0.2 Chrome/120.0.6099.109 Electron/28.1.0 Safari/537.36" etag="1qsSn1qOySBfLKTL1GlH" version="23.0.2" type="device">
  <diagram name="Page-1" id="ISXrM8oeW6P4OrQyJGqR">
    <mxGraphModel dx="561" dy="411" grid="1" gridSize="10" guides="1" tooltips="1" connect="1" arrows="1" fold="1" page="1" pageScale="1" pageWidth="850" pageHeight="1100" math="0" shadow="0">
      <root>
        <mxCell id="0" />
        <mxCell id="1" parent="0" />
        <mxCell id="Bm1MNQhXLhMLNL4FzW_Y-16" style="edgeStyle=orthogonalEdgeStyle;rounded=0;orthogonalLoop=1;jettySize=auto;html=1;exitX=1;exitY=0.5;exitDx=0;exitDy=0;entryX=0;entryY=0.5;entryDx=0;entryDy=0;horizontal=1;spacingTop=6;align=left;spacingLeft=6;jumpSize=8;strokeWidth=3;strokeColor=#666666;fillColor=#f5f5f5;" edge="1" parent="1" source="Bm1MNQhXLhMLNL4FzW_Y-2" target="Bm1MNQhXLhMLNL4FzW_Y-3">
          <mxGeometry relative="1" as="geometry" />
        </mxCell>
        <mxCell id="Bm1MNQhXLhMLNL4FzW_Y-2" value="&lt;font style=&quot;font-size: 16px;&quot;&gt;&lt;b style=&quot;font-size: 16px;&quot;&gt;&lt;font style=&quot;font-size: 16px;&quot; color=&quot;#6666ff&quot;&gt;Explore&lt;/font&gt;&amp;nbsp;&lt;/b&gt;model simulations&lt;/font&gt;" style="rounded=0;whiteSpace=wrap;html=1;verticalAlign=top;horizontal=1;spacingTop=0;fontSize=16;align=left;spacingLeft=6;fillColor=#f5f5f5;fontColor=#333333;strokeColor=#666666;" vertex="1" parent="1">
          <mxGeometry y="40" width="160" height="160" as="geometry" />
        </mxCell>
        <mxCell id="Bm1MNQhXLhMLNL4FzW_Y-17" style="edgeStyle=orthogonalEdgeStyle;rounded=0;orthogonalLoop=1;jettySize=auto;html=1;exitX=0.5;exitY=1;exitDx=0;exitDy=0;entryX=0.5;entryY=0;entryDx=0;entryDy=0;horizontal=1;spacingTop=6;align=left;spacingLeft=6;jumpSize=8;strokeWidth=3;strokeColor=#666666;fillColor=#f5f5f5;" edge="1" parent="1" source="Bm1MNQhXLhMLNL4FzW_Y-3" target="Bm1MNQhXLhMLNL4FzW_Y-4">
          <mxGeometry relative="1" as="geometry" />
        </mxCell>
        <mxCell id="Bm1MNQhXLhMLNL4FzW_Y-3" value="&lt;font style=&quot;font-size: 16px;&quot;&gt;&lt;font style=&quot;font-size: 16px;&quot; color=&quot;#6666ff&quot;&gt;&lt;b style=&quot;font-size: 16px;&quot;&gt;Parameterize&lt;/b&gt;&lt;/font&gt;&lt;span style=&quot;font-size: 16px;&quot;&gt; &lt;/span&gt;&lt;span style=&quot;font-size: 16px;&quot;&gt;realistically&lt;/span&gt;&lt;br style=&quot;font-size: 16px;&quot;&gt;&lt;/font&gt;" style="rounded=0;whiteSpace=wrap;html=1;verticalAlign=top;horizontal=1;spacingTop=0;fontSize=16;align=left;spacingLeft=6;fillColor=#f5f5f5;fontColor=#333333;strokeColor=#666666;" vertex="1" parent="1">
          <mxGeometry x="200" y="40" width="160" height="160" as="geometry" />
        </mxCell>
        <mxCell id="Bm1MNQhXLhMLNL4FzW_Y-18" style="edgeStyle=orthogonalEdgeStyle;rounded=0;orthogonalLoop=1;jettySize=auto;html=1;exitX=0;exitY=0.5;exitDx=0;exitDy=0;entryX=1;entryY=0.5;entryDx=0;entryDy=0;horizontal=1;spacingTop=6;align=left;spacingLeft=6;jumpSize=8;strokeWidth=3;strokeColor=#666666;fillColor=#f5f5f5;" edge="1" parent="1" source="Bm1MNQhXLhMLNL4FzW_Y-4" target="Bm1MNQhXLhMLNL4FzW_Y-5">
          <mxGeometry relative="1" as="geometry" />
        </mxCell>
        <mxCell id="Bm1MNQhXLhMLNL4FzW_Y-4" value="&lt;font style=&quot;font-size: 16px;&quot;&gt;&lt;b style=&quot;font-size: 16px;&quot;&gt;&lt;font style=&quot;font-size: 16px;&quot; color=&quot;#6666ff&quot;&gt;Infer&lt;/font&gt;&amp;nbsp;&lt;/b&gt;predicted outcomes&lt;/font&gt;" style="rounded=0;whiteSpace=wrap;html=1;verticalAlign=top;horizontal=1;spacingTop=0;fontSize=16;align=left;spacingLeft=6;fillColor=#f5f5f5;fontColor=#333333;strokeColor=#666666;" vertex="1" parent="1">
          <mxGeometry x="200" y="240" width="160" height="160" as="geometry" />
        </mxCell>
        <mxCell id="Bm1MNQhXLhMLNL4FzW_Y-19" style="edgeStyle=orthogonalEdgeStyle;rounded=0;orthogonalLoop=1;jettySize=auto;html=1;exitX=0.5;exitY=0;exitDx=0;exitDy=0;entryX=0.5;entryY=1;entryDx=0;entryDy=0;horizontal=1;spacingTop=6;align=left;spacingLeft=6;jumpSize=8;strokeWidth=3;strokeColor=#666666;fillColor=#f5f5f5;" edge="1" parent="1" source="Bm1MNQhXLhMLNL4FzW_Y-5" target="Bm1MNQhXLhMLNL4FzW_Y-2">
          <mxGeometry relative="1" as="geometry" />
        </mxCell>
        <mxCell id="Bm1MNQhXLhMLNL4FzW_Y-5" value="&lt;font style=&quot;font-size: 16px;&quot;&gt;&lt;b style=&quot;font-size: 16px;&quot;&gt;&lt;font style=&quot;font-size: 16px;&quot; color=&quot;#6666ff&quot;&gt;Structure&lt;/font&gt;&amp;nbsp;&lt;br style=&quot;font-size: 16px;&quot;&gt;&lt;/b&gt;models&lt;/font&gt;" style="rounded=0;whiteSpace=wrap;html=1;verticalAlign=top;horizontal=1;spacingTop=0;fontSize=16;align=left;spacingLeft=6;fillColor=#f5f5f5;fontColor=#333333;strokeColor=#666666;" vertex="1" parent="1">
          <mxGeometry y="240" width="160" height="160" as="geometry" />
        </mxCell>
        <mxCell id="Bm1MNQhXLhMLNL4FzW_Y-20" value="Compare simulations under alternative parameterizations, and with real and/or hypothetical data." style="rounded=0;whiteSpace=wrap;html=1;strokeColor=none;fontSize=12;align=left;fillColor=none;" vertex="1" parent="1">
          <mxGeometry x="5" y="130" width="150" height="50" as="geometry" />
        </mxCell>
        <mxCell id="Bm1MNQhXLhMLNL4FzW_Y-22" value="Stratify compartments (e.g. by age, space, vaccination status) and/or find stratified data." style="rounded=0;whiteSpace=wrap;html=1;strokeColor=none;fontSize=12;align=left;fillColor=none;" vertex="1" parent="1">
          <mxGeometry x="5" y="330" width="150" height="70" as="geometry" />
        </mxCell>
        <mxCell id="Bm1MNQhXLhMLNL4FzW_Y-23" value="Use realistically parameterized models to make inferences (e.g. forecasts, counter-factuals)." style="rounded=0;whiteSpace=wrap;html=1;strokeColor=none;fontSize=12;align=left;fillColor=none;" vertex="1" parent="1">
          <mxGeometry x="205" y="320" width="145" height="70" as="geometry" />
        </mxCell>
        <mxCell id="Bm1MNQhXLhMLNL4FzW_Y-29" value="Refine default parameter values, express uncertainty, and/or formally calibrate parameters with data." style="rounded=0;whiteSpace=wrap;html=1;strokeColor=none;fontSize=12;align=left;fillColor=none;" vertex="1" parent="1">
          <mxGeometry x="205" y="130" width="145" height="50" as="geometry" />
        </mxCell>
      </root>
    </mxGraphModel>
  </diagram>
</mxfile>
